<?xml version="1.0" encoding="UTF-8" standalone="no"?><!DOCTYPE svg PUBLIC "-//W3C//DTD SVG 1.1//EN" "http://www.w3.org/Graphics/SVG/1.1/DTD/svg11.dtd"><svg xmlns="http://www.w3.org/2000/svg" xmlns:xlink="http://www.w3.org/1999/xlink" version="1.1" width="256" height="256" viewBox="0 0 256 256">
<desc>Created with SVGMaker Editor 3.0.0</desc>
<defs>
</defs>
<path transform="translate(0,0)" style="stroke-width: 0; fill: rgb(249,247,247)" vector-effect="non-scaling-stroke" stroke-linecap="round" d="M78.6838 31.0486L78.6838 222.8286 178.6838 222.8286 178.6838 31.0486Z"/>
<path transform="translate(0,0)" style="fill: rgb(0,0,0); fill-rule: evenodd" stroke-linecap="round" d="M64.6993 32.888C64.0053 28.532 67.0293 25 71.4413 25L184.4493 25C188.8653 25 191.9263 28.545 191.3243 32.913 191.3243 32.913 184.4453 76.695 184.4453 128.131 184.4453 179.566 191.3203 223.092 191.3203 223.092 191.9413 227.46 188.8603 231 184.4493 231L71.4413 231C67.0253 231 64.0393 227.463 64.7273 223.101 64.7273 223.101 72.4453 180.434 72.4453 128.627 72.4453 76.819 64.6993 32.888 64.6993 32.888ZM80.4453 40C80.4453 40 88.4453 84.261 88.4453 128.521 88.4453 172.781 80.4453 217 80.4453 217L176.4453 217C176.4453 217 169.9123 172.554 169.9123 128.521 169.9123 84.49 176.4453 40 176.4453 40L80.4453 40Z"/>
<path transform="translate(0,0)" style="fill: rgb(0,0,0); fill-rule: evenodd" stroke-linecap="round" d="M95.4453 57L160.4453 57 156.4453 73 98.4453 73ZM100.4453 182L155.4453 182 160.4453 201 96.4453 201ZM104.4453 124L152.4453 124 152.4453 133 104.4453 133Z"/>
</svg>