<?xml version="1.0" encoding="UTF-8" standalone="no"?><!DOCTYPE svg PUBLIC "-//W3C//DTD SVG 1.1//EN" "http://www.w3.org/Graphics/SVG/1.1/DTD/svg11.dtd"><svg xmlns="http://www.w3.org/2000/svg" xmlns:xlink="http://www.w3.org/1999/xlink" version="1.1" width="256" height="256" viewBox="0 0 256 256">
<desc>Created with SVGMaker Editor 3.0.0</desc>
<defs>
</defs>
<path transform="translate(0,0)" style="fill: rgb(0,0,0); fill-rule: evenodd" stroke-linecap="round" d="M138.9081 59.0388C139.0781 56.5008 137.6881 54.2468 135.4581 54.2468L127.2651 54.2468C123.6101 54.2468 123.7451 54.9288 123.7451 58.1058 123.7451 61.2818 124.1391 205.2378 124.2051 207.9658 124.2691 210.6948 125.2651 212.4198 127.4241 212.4198 129.5831 212.4198 133.6761 212.4198 135.7541 212.4138 137.8331 212.4068 138.8421 210.5168 138.8421 208.3808 138.8421 206.2448 138.7381 61.5778 138.9081 59.0388Z"/>
<path transform="translate(0,0)" style="fill: rgb(0,0,0); fill-rule: evenodd" stroke-linecap="round" d="M57.5662 122.8069C55.0288 122.628 52.7699 124.0101 52.7621 126.2401L52.7334 134.433C52.7205 138.088 53.403 137.9554 56.58 137.9665 59.7559 137.9777 203.7119 138.0889 206.4401 138.0325 209.1693 137.9781 210.8977 136.9882 210.9053 134.8292 210.9129 132.6702 210.9273 128.5772 210.9286 126.4992 210.9289 124.4202 209.0424 123.4046 206.9064 123.3971 204.7705 123.3896 60.1045 122.9858 57.5662 122.8069Z"/>
</svg>