<?xml version="1.0" encoding="UTF-8" standalone="no"?><!DOCTYPE svg PUBLIC "-//W3C//DTD SVG 1.1//EN" "http://www.w3.org/Graphics/SVG/1.1/DTD/svg11.dtd"><svg xmlns="http://www.w3.org/2000/svg" xmlns:xlink="http://www.w3.org/1999/xlink" version="1.1" width="256" height="256" viewBox="0 0 256 256">
<desc>Created with SVGMaker Editor 3.0.0</desc>
<defs>
</defs>
<path transform="translate(0,0)" style="stroke-width: 0; fill: rgb(255,255,255)" vector-effect="non-scaling-stroke" stroke-linecap="round" d="M60.9059 60.2222L60.9059 195.2502 195.9339 195.2502 195.9339 60.2222Z"/>
<path transform="translate(0,0)" style="fill: rgb(0,0,0); fill-rule: evenodd" stroke-linecap="round" d="M55.723 48.128L200.276 48.128C202.3991 48.1269 204.4356 48.9699 205.9369 50.4711 207.4381 51.9724 208.2811 54.0089 208.28 56.132L208.28 199.868C208.2808 201.991 207.4378 204.0274 205.9366 205.5286 204.4353 207.0298 202.399 207.8728 200.276 207.872L55.723 207.872C53.6001 207.8728 51.5638 207.0297 50.0628 205.5285 48.5617 204.0273 47.7189 201.9909 47.72 199.868L47.72 56.132C47.7192 54.0091 48.5621 51.973 50.0631 50.4718 51.5641 48.9706 53.6001 48.1275 55.723 48.128ZM64.341 191.985L81.881 183.817 181.343 183.817C182.4011 183.8152 183.415 183.3924 184.1609 182.6419 184.9068 181.8915 185.3235 180.8751 185.319 179.817L184.926 80.124 192.827 63.814 64.341 63.814 64.341 191.985Z"/>
<path transform="translate(0,0)" style="fill: rgb(0,0,0); fill-rule: evenodd" stroke-linecap="round" d="M93.548 111.586C92.4883 111.586 91.472 112.007 90.7227 112.7565 89.9735 113.5059 89.5527 114.5223 89.553 115.582L89.553 123.59C89.5524 124.6485 89.9742 125.6635 90.7247 126.4099 91.4753 127.1563 92.4925 127.5724 93.551 127.566L165.085 127.201C167.293 127.19 169.137 125.391 169.203 123.185L169.433 115.582C169.4729 114.5315 169.0815 113.5104 168.3497 112.7557 167.6178 112.001 166.6092 111.5784 165.558 111.586L93.548 111.586Z"/>
</svg>